<?xml version="1.0" encoding="UTF-8"?>
<svg width="21px" height="21px" viewBox="0 0 21 21" version="1.1" xmlns="http://www.w3.org/2000/svg" xmlns:xlink="http://www.w3.org/1999/xlink">
    <!-- Generator: Sketch 63.1 (92452) - https://sketch.com -->
    <title>Shape</title>
    <desc>Created with Sketch.</desc>
    <g id="Page-1" stroke="none" stroke-width="1" fill="none" fill-rule="evenodd" opacity="0.4">
        <g id="V2" transform="translate(-1344.000000, -249.000000)" fill="#EC008C" fill-rule="nonzero">
            <g id="Hero">
                <g id="D4-outline" transform="translate(1354.861629, 258.547596) rotate(-297.000000) translate(-1354.861629, -258.547596) translate(1343.361629, 247.547596)">
                    <path d="M22.6809543,12.4190153 L12.6158494,0.509599422 C12.3288012,0.170152927 11.9146252,0 11.5,0 C11.0853748,0 10.6711988,0.170152927 10.3837014,0.509599422 L0.319045674,12.4190153 C-0.189016172,13.020566 -0.0780601363,13.9044159 0.564766125,14.3736255 L10.6294219,21.7185602 C10.8863727,21.90633 11.1931863,22 11.5,22 C11.8068137,22 12.1136273,21.90633 12.3705781,21.7185602 L22.4352339,14.3736255 C23.0780601,13.9044159 23.1890162,13.0201363 22.6809543,12.4190153 Z M1.43714111,13.2830999 L10.7812565,2.22358938 L10.7812565,20.099959 L1.43714111,13.2830999 Z M12.2187435,20.101248 L12.2187435,2.22659714 L21.5633081,13.2805219 L12.2187435,20.101248 Z" id="Shape"></path>
                </g>
            </g>
        </g>
    </g>
</svg>