<?xml version="1.0" encoding="UTF-8"?>
<svg width="31px" height="31px" viewBox="0 0 31 31" version="1.1" xmlns="http://www.w3.org/2000/svg" xmlns:xlink="http://www.w3.org/1999/xlink">
    <!-- Generator: Sketch 63.1 (92452) - https://sketch.com -->
    <title>Shape</title>
    <desc>Created with Sketch.</desc>
    <g id="Page-1" stroke="none" stroke-width="1" fill="none" fill-rule="evenodd" opacity="0.4">
        <g id="V2" transform="translate(-1212.000000, -412.000000)" fill="#54B8EC" fill-rule="nonzero">
            <g id="Hero">
                <g id="D20-outline" transform="translate(1227.537712, 427.552008) rotate(-318.000000) translate(-1227.537712, -427.552008) translate(1214.037712, 412.052008)">
                    <path d="M26.0284821,7.03128036 L14.4570536,0.260300747 C13.8657815,-0.0867669155 13.1342185,-0.0867669155 12.5429464,0.260300747 L0.971517857,7.03188583 C0.370647321,7.38305887 0,8.03757277 0,8.74657904 L0,22.2540264 C0,22.9630327 0.370647321,23.6169411 0.971517857,23.9687196 L12.5429464,30.7396993 C13.1342185,31.0867669 13.8657815,31.0867669 14.4570536,30.7396993 L26.0284821,23.9687196 C26.6293527,23.6169411 27,22.9624272 27,22.2540264 L27,8.74657904 C27,8.03757277 26.6293527,7.38305887 26.0284821,7.03128036 Z M13.5,3.48867089 L19.2073661,10.6562338 L7.79263393,10.6562338 L13.5,3.48867089 Z M7.51058036,12.5937403 L19.488817,12.5937403 L13.5,22.3702768 L7.51058036,12.5937403 Z M11.6256696,23.0072321 L3.37017857,21.9706661 L6.04787946,13.9009517 L11.6256696,23.0072321 L11.6256696,23.0072321 Z M20.9521205,13.9003462 L23.6298214,21.9700606 L15.3743304,23.0072321 L20.9521205,13.9003462 Z M21.3842411,10.2862912 L15.830558,3.31308436 L24.148125,8.20407723 L21.3842411,10.2862912 Z M5.61575893,10.2862912 L2.82897321,8.18651858 L11.1784821,3.30036948 L5.61575893,10.2862912 Z M4.65087054,11.9803984 L1.93098214,20.1784726 L1.94122768,9.93875099 L4.65087054,11.9803984 L4.65087054,11.9803984 Z M12.5357143,25.0737038 L12.5357143,28.4903753 L5.146875,24.1461226 L12.5357143,25.0737038 Z M21.9133929,24.1382515 L14.4642857,28.507934 L14.4642857,25.0737038 L21.9133929,24.1382515 Z M22.3491295,11.9803984 L25.0702232,9.9302744 L25.0599777,20.1500155 L22.3491295,11.9803984 L22.3491295,11.9803984 Z M13.5321437,29.09042 L13.5521003,29.09042 L13.541535,29.0963815 L13.5321437,29.09042 L13.5321437,29.09042 Z" id="Shape"></path>
                </g>
            </g>
        </g>
    </g>
</svg>