<?xml version="1.0" encoding="UTF-8"?>
<svg width="32px" height="31px" viewBox="0 0 32 31" version="1.1" xmlns="http://www.w3.org/2000/svg" xmlns:xlink="http://www.w3.org/1999/xlink">
    <!-- Generator: Sketch 63.1 (92452) - https://sketch.com -->
    <title>Shape</title>
    <desc>Created with Sketch.</desc>
    <g id="Page-1" stroke="none" stroke-width="1" fill="none" fill-rule="evenodd" opacity="0.399669829">
        <g id="V2" transform="translate(-82.000000, -394.000000)" fill="#702C91" fill-rule="nonzero">
            <g id="Hero">
                <g id="D8-outline" transform="translate(98.130302, 409.508940) rotate(-349.000000) translate(-98.130302, -409.508940) translate(82.130302, 394.008940)">
                    <path d="M31.38125,14.0556749 L17.49375,0.599531158 C17.08125,0.199843719 16.5375,0 16,0 C15.4625,0 14.91875,0.199843719 14.50625,0.599531158 L0.61875,14.0556749 C-0.20625,14.8550498 -0.20625,16.1449502 0.61875,16.9443251 L14.50625,30.4004688 C14.91875,30.8001563 15.45625,31 16,31 C16.54375,31 17.08125,30.8001563 17.49375,30.4004688 L31.38125,16.9443251 C32.20625,16.1510061 32.20625,14.8550498 31.38125,14.0556749 Z M15,28.1416292 L3.825,17.3137332 L15,21.9525298 L15,28.1416292 Z M15,19.8450869 L2.73125,14.7521 L15,2.86442665 L15,19.8450869 Z M17,28.1416292 L17,21.9525298 L28.175,17.3137332 L17,28.1416292 Z M17,19.8450869 L17,2.86442665 L29.26875,14.7521 L17,19.8450869 Z" id="Shape"></path>
                </g>
            </g>
        </g>
    </g>
</svg>