<?xml version="1.0" encoding="UTF-8"?>
<svg width="19px" height="20px" viewBox="0 0 19 20" version="1.1" xmlns="http://www.w3.org/2000/svg" xmlns:xlink="http://www.w3.org/1999/xlink">
    <!-- Generator: Sketch 63.1 (92452) - https://sketch.com -->
    <title>Shape</title>
    <desc>Created with Sketch.</desc>
    <g id="Page-1" stroke="none" stroke-width="1" fill="none" fill-rule="evenodd" opacity="0.8">
        <g id="V2" transform="translate(-977.000000, -275.000000)" fill="#702C91" fill-rule="nonzero">
            <g id="Hero">
                <g id="D8-outline" transform="translate(986.537198, 285.202399) rotate(-131.000000) translate(-986.537198, -285.202399) translate(974.037198, 273.202399)">
                    <path d="M24.5166016,10.8818129 L13.6669922,0.464153155 C13.3447266,0.154717718 12.9199219,0 12.5,0 C12.0800781,0 11.6552734,0.154717718 11.3330078,0.464153155 L0.483398438,10.8818129 C-0.161132813,11.5006837 -0.161132813,12.4993163 0.483398438,13.1181871 L11.3330078,23.5358468 C11.6552734,23.8452823 12.0751953,24 12.5,24 C12.9248047,24 13.3447266,23.8452823 13.6669922,23.5358468 L24.5166016,13.1181871 C25.1611328,12.5040047 25.1611328,11.5006837 24.5166016,10.8818129 Z M11.71875,21.7870678 L2.98828125,13.4041805 L11.71875,16.9955069 L11.71875,21.7870678 Z M11.71875,15.3639383 L2.13378906,11.4209807 L11.71875,2.21762063 L11.71875,15.3639383 Z M13.28125,21.7870678 L13.28125,16.9955069 L22.0117188,13.4041805 L13.28125,21.7870678 Z M13.28125,15.3639383 L13.28125,2.21762063 L22.8662109,11.4209807 L13.28125,15.3639383 Z" id="Shape"></path>
                </g>
            </g>
        </g>
    </g>
</svg>