<?xml version="1.0" encoding="UTF-8"?>
<svg width="24px" height="23px" viewBox="0 0 24 23" version="1.1" xmlns="http://www.w3.org/2000/svg" xmlns:xlink="http://www.w3.org/1999/xlink">
    <!-- Generator: Sketch 63.1 (92452) - https://sketch.com -->
    <title>Shape</title>
    <desc>Created with Sketch.</desc>
    <g id="Page-1" stroke="none" stroke-width="1" fill="none" fill-rule="evenodd">
        <g id="V2" transform="translate(-616.000000, -311.000000)" fill="#54B8EC" fill-rule="nonzero">
            <g id="Hero">
                <g id="D6-outline" transform="translate(628.153284, 322.337817) rotate(-142.000000) translate(-628.153284, -322.337817) translate(617.653284, 310.837817)">
                    <path d="M20.244375,5.21675639 L11.244375,0.19312636 C10.7844967,-0.0643754534 10.2155033,-0.0643754534 9.755625,0.19312636 L0.755625,5.21720561 C0.28828125,5.47775336 0,5.96336044 0,6.48939735 L0,16.5110519 C0,17.0370888 0.28828125,17.5222466 0.755625,17.7832436 L9.755625,22.8068736 C10.2155033,23.0643755 10.7844967,23.0643755 11.244375,22.8068736 L20.244375,17.7832436 C20.7117187,17.5222466 21,17.0366396 21,16.5110519 L21,6.48939735 C21,5.96336044 20.7117187,5.47775336 20.244375,5.21675639 Z M10.5,1.44106021 L18.7382812,6.06173968 L10.5,10.6680441 L2.24203125,6.05095839 L10.5,1.44106021 Z M1.50984375,7.30652899 L9.75,11.9123842 L9.75,21.1380204 L1.5,16.5106026 L1.50984375,7.30652899 Z M11.25,21.1510478 L11.25,11.9123842 L19.4990625,7.30158756 L19.4892188,16.5407004 L11.25,21.1510478 Z" id="Shape"></path>
                </g>
            </g>
        </g>
    </g>
</svg>