<?xml version="1.0" encoding="UTF-8"?>
<svg width="20px" height="20px" viewBox="0 0 20 20" version="1.1" xmlns="http://www.w3.org/2000/svg" xmlns:xlink="http://www.w3.org/1999/xlink">
    <!-- Generator: Sketch 63.1 (92452) - https://sketch.com -->
    <title>Shape</title>
    <desc>Created with Sketch.</desc>
    <g id="Page-1" stroke="none" stroke-width="1" fill="none" fill-rule="evenodd" opacity="0.8">
        <g id="V2" transform="translate(-198.000000, -701.000000)" fill="#EC008C" fill-rule="nonzero">
            <g id="Hero">
                <g id="D20-outline" transform="translate(208.303287, 710.526205) rotate(-17.000000) translate(-208.303287, -710.526205) translate(198.803287, 700.026205)">
                    <path d="M17.4237625,5.40072999 L9.70947675,1.03235605 C9.31529538,0.808441429 8.82758669,0.808441429 8.43340532,1.03235605 L0.719119605,5.40112062 C0.318539248,5.62768387 0.0714410336,6.04995091 0.0714410336,6.50737431 L0.0714410336,15.2218565 C0.0714410336,15.6792799 0.318539248,16.1011563 0.719119605,16.3281102 L8.43340532,20.6964841 C8.82758669,20.9203987 9.31529538,20.9203987 9.70947675,20.6964841 L17.4237625,16.3281102 C17.8243428,16.1011563 18.071441,15.6788893 18.071441,15.2218565 L18.071441,6.50737431 C18.071441,6.04995091 17.8243428,5.62768387 17.4237625,5.40072999 Z M9.07144103,3.11517549 L12.8763517,7.73940966 L5.26653032,7.73940966 L9.07144103,3.11517549 Z M5.0784946,8.98941383 L13.0639857,8.98941383 L9.07144103,15.2968567 L5.0784946,8.98941383 Z M7.82188746,15.7077956 L2.31822675,15.0390434 L4.10336068,9.83277602 L7.82188746,15.7077956 L7.82188746,15.7077956 Z M14.0395214,9.83238539 L15.8246553,15.0386528 L10.3209946,15.7077956 L14.0395214,9.83238539 Z M14.3276017,7.50073699 L10.6251464,3.00189387 L16.170191,6.15737314 L14.3276017,7.50073699 Z M3.81528032,7.50073699 L1.95742318,6.14604498 L7.52376246,2.99369071 L3.81528032,7.50073699 Z M3.17202139,8.59370939 L1.35876246,13.8827895 L1.36559282,7.2765175 L3.17202139,8.59370939 L3.17202139,8.59370939 Z M8.42858389,17.0410032 L8.42858389,19.2453074 L3.50269103,16.4425637 L8.42858389,17.0410032 Z M14.6803696,16.4374855 L9.71429818,19.2566356 L9.71429818,17.0410032 L14.6803696,16.4374855 Z M14.9708607,8.59370939 L16.7849232,7.27104873 L16.7780928,13.8644301 L14.9708607,8.59370939 L14.9708607,8.59370939 Z M9.10189193,19.6433945 L9.11889193,19.6433945 L9.10989193,19.6483945 L9.10189193,19.6433945 L9.10189193,19.6433945 Z" id="Shape"></path>
                </g>
            </g>
        </g>
    </g>
</svg>