<svg xmlns="http://www.w3.org/2000/svg" xmlns:xlink="http://www.w3.org/1999/xlink" viewBox="0 0 190 383">
  <defs>
    <rect id="a" width="23.3" height="3.6" rx="1.8"/>
    <ellipse id="b" cx="2.8" cy="2.8" rx="1.5" ry="1.5"/>
  </defs>
  <g fill="none" fill-rule="evenodd">
    <path fill="#FFF" d="M105.7 382.2c-.5-.4-1.5-.6-3-.6H86c-1.5 0-2.5.2-3 .6H27.6a26 26 0 0 1-26-26V144.4h-.3c-.7 0-1.3-.6-1.3-1.3v-26.4c0-.7.6-1.3 1.3-1.3h.3V109h-.3c-.7 0-1.3-.6-1.3-1.4V81.3c0-.7.6-1.3 1.3-1.3h.3V65.5h-.3A1.3 1.3 0 0 1 0 64.2V49.9c0-.7.6-1.3 1.3-1.3h.3V26a26 26 0 0 1 26-26h134a26 26 0 0 1 26 26v62.9h.4c.7 0 1.3.6 1.3 1.3v40.1c0 .8-.6 1.4-1.3 1.4h-.3v224.5a26 26 0 0 1-26 26h-56zM29 9.2a18.3 18.3 0 0 0-18.2 18.2v323.7a22 22 0 0 0 22 22h123.7a22 22 0 0 0 22-22V27.4c0-10.1-8.1-18.3-18.2-18.3h-14.6a4 4 0 0 0-4 3.4c-1 6.6-5.6 10-13.7 10H61.3c-8 0-12.6-3.4-13.7-10a4 4 0 0 0-4-3.4H29z"/>
    <path fill="#E5E5E5" d="M1.6 34h3.3v2.8H1.6zm182.8 0h3.3v2.8h-3.3zM1.6 344.3h3.3v2.7H1.6zm182.8 0h3.3v2.7h-3.3z" opacity=".6"/>
    <use fill="#F4F4F4" opacity=".8" transform="translate(77 11.3)" xlink:href="#a"/>
    <g transform="translate(106.2 10)">
      <ellipse cx="2.8" cy="2.8" fill="#F4F4F4" rx="2.8" ry="2.8"/>
      <use fill="#C9C9C9" opacity=".4" xlink:href="#b"/>
    </g>
  </g>
</svg>
