<?xml version="1.0" encoding="UTF-8"?>
<svg width="360px" height="718px" viewBox="0 0 360 718" version="1.1" xmlns="http://www.w3.org/2000/svg" xmlns:xlink="http://www.w3.org/1999/xlink">
    <!-- Generator: Sketch 50.2 (55047) - http://www.bohemiancoding.com/sketch -->
    <title>Group</title>
    <desc>Created with Sketch.</desc>
    <defs></defs>
    <g id="Page-1" stroke="none" stroke-width="1" fill="none" fill-rule="evenodd">
        <g id="Group" fill-rule="nonzero">
            <path d="M356,163 L356,50.6 C356,21.8 333.6,0 304.8,0 L56,0 C27.2,0 3,21.9 3,50.6 L3,94 L0,94 L0,121 L3,121 L3,146 L0,146 L0,197 L3,197 L3,212 L0,212 L0,263 L3,263 L3,664.4 C3,693.2 27.3,718 56,718 L304.8,718 C333.6,718 356,693.2 356,664.4 L356,246 L360,246 L360,163 L356,163 Z M337,662.1 C337,679.6 324.1,695 306.6,695 L57.6,695 C40.1,695 25,679.6 25,662.1 L25,48.8 C25,31.4 40.2,19 57.6,19 L86.4,19 C92.5,19 94.7,18.1 95.1,25.8 C95.3,29.8 96.8,32.8 99.1,35.4 C101.5,37.9 104.7,40.2 108.4,41.3 C110.9,42.1 113.7,43 116.4,43 L121.8,43 L242.5,43 L247.9,43 C250.6,43 253.4,41.9 255.9,41.1 C259.6,39.9 262.9,37.9 265.2,35.4 C267.6,32.9 269,30 269.2,26 C269.6,18.3 271.8,18.9 277.9,18.9 L306.4,18.9 C323.9,18.9 336.8,31.3 336.8,48.7 L336.8,662.1 L337,662.1 Z" id="XMLID_156_" fill="#FCFCFC"></path>
            <path d="M201.8,22 L162.8,22 C161.1,22 159.8,23 159.8,24.5 C159.8,26 161.1,27 162.8,27 L201.8,27 C203.5,27 204.8,26 204.8,24.5 C204.8,23 203.4,22 201.8,22 Z" id="XMLID_159_" fill="#F2F2F2"></path>
            <circle id="XMLID_51_" fill="#F2F2F2" cx="217.9" cy="22.5" r="4.4"></circle>
        </g>
    </g>
</svg>